# xmcd
#
# Track frame offsets: 
#        150
#        22597
#        41380
#        55108
#        76615
#        96267
#        109351
#        127052
#        146038
#        157495
#        166908
#        176696
#        185059
#        195934
#        205497
#        217047
#        227585
#        236792
#        248867
#        259011
#        268095
#        278970
#        288758
#        298392
#        307205
#        317405
#        328730
#
# Disc length: 4500 seconds
#
# Revision: 0
# Processed by: cddbd v1.5.2PL0 Copyright (c) Steve Scherf et al.
# Submitted via: ExactAudioCopyFreeDBPlugin 1.0
#
DISCID=9e11921b
DTITLE=Johnny Cash - Ride this train and Now, there was a song!
DYEAR=2012
DGENRE=
TTITLE0=Loading coal
TTITLE1=Slow rider
TTITLE2=Lumberjack
TTITLE3=Dorraine of Ponchartrain
TTITLE4=Going to Memphis
TTITLE5=When papa played the dobro
TTITLE6=Boss Jack
TTITLE7=Old doc brown
TTITLE8=Seasons of my heart
TTITLE9=I feel better all over
TTITLE10=I couldn't keep from crying
TTITLE11=Time changes everything
TTITLE12=My shoes keep walking back to you
TTITLE13=I'd just be fool enough (To fall)
TTITLE14=Transfusion blues
TTITLE15=Why do you punish me (for loving you)
TTITLE16=I will miss you when you go
TTITLE17=I'm so lonesome I could cry
TTITLE18=Just one more
TTITLE19=Honky Tonk girl
TTITLE20=Train of love
TTITLE21=It's just about time
TTITLE22=Smilling Bill McCall
TTITLE23=Second honeymoon
TTITLE24=Goodbye little darlin'
TTITLE25=Oh lonesome me
TTITLE26=Life goes on
EXTD=
EXTT0=
EXTT1=
EXTT2=
EXTT3=
EXTT4=
EXTT5=
EXTT6=
EXTT7=
EXTT8=
EXTT9=
EXTT10=
EXTT11=
EXTT12=
EXTT13=
EXTT14=
EXTT15=
EXTT16=
EXTT17=
EXTT18=
EXTT19=
EXTT20=
EXTT21=
EXTT22=
EXTT23=
EXTT24=
EXTT25=
EXTT26=
PLAYORDER=
